<?xml version="1.0" encoding="iso-8859-1"?>
<!-- Generator: Adobe Illustrator 22.0.0, SVG Export Plug-In . SVG Version: 6.00 Build 0)  -->
<svg xmlns="http://www.w3.org/2000/svg" xmlns:xlink="http://www.w3.org/1999/xlink" version="1.1" id="Layer_1" x="0px" y="0px" viewBox="0 0 56 58" style="enable-background:new 0 0 56 58;" xml:space="preserve" width="512" height="512">
<g id="_x32_-Mansion">
	<rect x="6" y="18" style="fill:#DBB072;" width="21" height="16"/>
	<rect x="4" y="16" style="fill:#814F51;" width="20" height="4"/>
	<polygon style="fill:#DBB072;" points="6,36 6,49.313 7,54 25,52 25,36  "/>
	<rect x="11" y="24" style="fill:#A6C4F2;" width="6" height="10"/>
	<rect x="11" y="42" style="fill:#A36567;" width="6" height="10"/>
	<rect x="4" y="34" style="fill:#814F51;" width="19.591" height="4"/>
	<path style="fill:#7D7782;" d="M19,25H9c-0.552,0-1-0.448-1-1s0.448-1,1-1h10c0.552,0,1,0.448,1,1S19.552,25,19,25z"/>
	<polygon style="fill:#F8D293;" points="37,0 28,6 28,10 46,10 46,6  "/>
	<path style="fill:#F8D293;" d="M22,15v37v3v3h4h26c-0.173,0-0.344-0.009-0.511-0.027L52,46v-2V15H22z"/>
	<rect x="22" y="10" style="fill:#814F51;" width="30" height="5"/>
	<path style="fill:#25AE88;" d="M52,58L52,58c-0.173,0-0.344-0.009-0.511-0.027c-2.798-0.296-4.298-3.198-3.038-5.496L52,46   l3.55,6.477c1.26,2.298-0.241,5.2-3.038,5.496C52.344,57.991,52.173,58,52,58z"/>
	<path style="fill:#6C342A;" d="M52,58c-0.552,0-1-0.448-1-1v-5c0-0.552,0.448-1,1-1s1,0.448,1,1v5C53,57.552,52.552,58,52,58z"/>
	<rect x="28" y="39" style="fill:#814F51;" width="18" height="3"/>
	<rect x="30" y="42" style="fill:#A6C4F2;" width="14" height="10"/>
	<rect x="36" y="42" style="fill:#7D7782;" width="2" height="10"/>
	<rect x="30" y="46" style="fill:#7D7782;" width="14" height="2"/>
	<path style="fill:#FFFFFF;" d="M17,48h-2c-0.552,0-1-0.448-1-1s0.448-1,1-1h2c0.552,0,1,0.448,1,1S17.552,48,17,48z"/>
	<path style="fill:#A6C4F2;" d="M40,10V8c0-1.65-1.35-3-3-3s-3,1.35-3,3v2H40z"/>
	<rect x="22" y="34" style="fill:#603639;" width="30" height="2"/>
	<rect x="22" y="6" style="fill:#DBB072;" width="6" height="4"/>
	<rect x="46" y="6" style="fill:#DBB072;" width="6" height="4"/>
	<rect x="30" y="19" style="fill:#A6C4F2;" width="14" height="12"/>
	<rect x="30" y="22" style="fill:#7D7782;" width="14" height="2"/>
	<path style="fill:#7D7782;" d="M37,27c-0.552,0-1-0.448-1-1v-3c0-0.552,0.448-1,1-1s1,0.448,1,1v3C38,26.552,37.552,27,37,27z"/>
	<path style="fill:#A36567;" d="M4,55c-0.33,1.501,2.319,2.782,0.511,2.973L26,58v-3H4z"/>
	<path style="fill:#603639;" d="M4.293,52l0.261,0.477C5,53.29,5.094,54.178,4.913,55H24v-3H4.293z"/>
	<path style="fill:#25AE88;" d="M4,58L4,58c-0.173,0-0.344-0.009-0.511-0.027c-2.798-0.296-4.298-3.198-3.038-5.496L4,46l3.55,6.477   c1.26,2.298-0.241,5.2-3.038,5.496C4.344,57.991,4.173,58,4,58z"/>
	<path style="fill:#6C342A;" d="M4,58c-0.552,0-1-0.448-1-1v-5c0-0.552,0.448-1,1-1s1,0.448,1,1v5C5,57.552,4.552,58,4,58z"/>
</g>

</svg>
